<svg width="1600" height="900" viewBox="0 0 1600 900" xmlns="http://www.w3.org/2000/svg">
  <defs>
    <linearGradient id="bg" x1="0" y1="0" x2="1" y2="1">
      <stop offset="0" stop-color="#140d08"/>
      <stop offset="0.48" stop-color="#4b2e19"/>
      <stop offset="1" stop-color="#090807"/>
    </linearGradient>
    <radialGradient id="light" cx="72%" cy="30%" r="55%">
      <stop offset="0" stop-color="#f4d99c" stop-opacity="0.34"/>
      <stop offset="0.46" stop-color="#c08a45" stop-opacity="0.12"/>
      <stop offset="1" stop-color="#000000" stop-opacity="0"/>
    </radialGradient>
    <linearGradient id="gold" x1="0" y1="0" x2="1" y2="1">
      <stop offset="0" stop-color="#fff3ba"/>
      <stop offset="0.42" stop-color="#d6a24f"/>
      <stop offset="0.72" stop-color="#fff0b0"/>
      <stop offset="1" stop-color="#8d5a24"/>
    </linearGradient>
    <filter id="shadow" x="-20%" y="-20%" width="140%" height="140%">
      <feDropShadow dx="0" dy="10" stdDeviation="10" flood-color="#000000" flood-opacity="0.75"/>
      <feDropShadow dx="0" dy="0" stdDeviation="2" flood-color="#fff2b0" flood-opacity="0.45"/>
    </filter>
  </defs>
  <rect width="1600" height="900" fill="url(#bg)"/>
  <rect width="1600" height="900" fill="url(#light)"/>
  <g opacity="0.35">
    <rect x="950" y="0" width="260" height="900" fill="#130b07"/>
    <rect x="1010" y="0" width="10" height="900" fill="#d7a968"/>
    <rect x="1115" y="0" width="8" height="900" fill="#d7a968"/>
    <circle cx="1260" cy="160" r="54" fill="#ffd98f" opacity="0.34"/>
    <circle cx="1390" cy="230" r="32" fill="#ffd98f" opacity="0.26"/>
  </g>
  <g transform="translate(110,86) rotate(-10)">
    <rect x="0" y="0" width="650" height="92" rx="10" fill="#111"/>
    <g fill="#e7dfcf">
      <rect x="40" y="0" width="76" height="92" transform="skewX(-18)"/>
      <rect x="190" y="0" width="76" height="92" transform="skewX(-18)"/>
      <rect x="340" y="0" width="76" height="92" transform="skewX(-18)"/>
      <rect x="490" y="0" width="76" height="92" transform="skewX(-18)"/>
    </g>
    <rect x="18" y="86" width="680" height="300" rx="18" fill="#d8c5a7"/>
    <text x="72" y="190" fill="#17120f" font-size="62" font-family="serif" font-weight="700">《离婚夜，霸总</text>
    <text x="74" y="278" fill="#17120f" font-size="62" font-family="serif" font-weight="700">强吻我后，白月光也疯了》</text>
  </g>
  <g transform="translate(1010 210)" opacity="0.76">
    <ellipse cx="150" cy="168" rx="90" ry="150" fill="#1b1411"/>
    <rect x="70" y="210" width="160" height="250" rx="48" fill="#17110f"/>
    <circle cx="150" cy="92" r="54" fill="#c68c63"/>
    <ellipse cx="118" cy="104" rx="48" ry="70" fill="#7d3f27"/>
  </g>
  <g transform="translate(1150 190)" opacity="0.84">
    <rect x="76" y="182" width="170" height="290" rx="54" fill="#111"/>
    <circle cx="160" cy="88" r="58" fill="#b77b57"/>
    <path d="M108 118 C122 178 198 178 214 118 L206 264 L116 264 Z" fill="#0a0909"/>
  </g>
  <g transform="translate(1330 265)" opacity="0.68">
    <rect x="24" y="130" width="120" height="245" rx="42" fill="#d0a78c"/>
    <circle cx="84" cy="80" r="46" fill="#c98a62"/>
    <path d="M32 140 C60 100 112 98 142 140 L132 260 L44 260 Z" fill="#f2d1bb"/>
  </g>
  <text x="770" y="545" text-anchor="middle" fill="url(#gold)" filter="url(#shadow)" font-size="78" font-family="serif" font-weight="800">觉醒来</text>
  <text x="790" y="660" text-anchor="middle" fill="url(#gold)" filter="url(#shadow)" font-size="132" font-family="serif" font-weight="900">短剧退步十年</text>
  <text x="820" y="790" text-anchor="middle" fill="url(#gold)" filter="url(#shadow)" font-size="132" font-family="serif" font-weight="900">而我保持不变</text>
  <text x="810" y="858" text-anchor="middle" fill="#f8df9c" font-size="28" font-family="serif" letter-spacing="8">这一次，我要夺回我的一切……？</text>
</svg>
